<?xml version="1.0" encoding="UTF-8"?>
<svg width="24px" height="24px" viewBox="0 0 24 24" version="1.1" xmlns="http://www.w3.org/2000/svg">
  <g stroke="none" stroke-width="1" fill="none" fill-rule="evenodd">
    <path d="M21,16 L21,14 C21,13.4477153 20.5522847,13 20,13 L16.5,13 L12.5,7.5 L12.5,4 C12.5,2.8954305 11.6045695,2 10.5,2 C9.3954305,2 8.5,2.8954305 8.5,4 L8.5,7.5 L4.5,13 L1,13 C0.44771525,13 0,13.4477153 0,14 L0,16 C0,16.5522847 0.44771525,17 1,17 L4.5,17 L8.5,20 L8.5,22 C8.5,22.5522847 8.94771525,23 9.5,23 L11.5,23 C12.0522847,23 12.5,22.5522847 12.5,22 L12.5,20 L16.5,17 L20,17 C20.5522847,17 21,16.5522847 21,16 Z" fill="#1976d2" fill-rule="nonzero"></path>
  </g>
</svg> 